<?xml version="1.0" encoding="utf-8"?>
<!-- Generator: Adobe Illustrator 19.2.1, SVG Export Plug-In . SVG Version: 6.00 Build 0)  -->
<svg version="1.1"
	 id="svg5219" xmlns:cc="http://creativecommons.org/ns#" xmlns:dc="http://purl.org/dc/elements/1.1/" xmlns:rdf="http://www.w3.org/1999/02/22-rdf-syntax-ns#" xmlns:svg="http://www.w3.org/2000/svg"
	 xmlns="http://www.w3.org/2000/svg" xmlns:xlink="http://www.w3.org/1999/xlink" x="0px" y="0px" viewBox="0 0 260 60"
	 style="enable-background:new 0 0 260 60;" xml:space="preserve">
<style type="text/css">
	.st0{fill:#EE3124;}
</style>
<g id="layer1" transform="translate(-30.268839,-658.14906)">
	<path id="path3269" class="st0" d="M70.6,679.6v-17.2H53.4v17.2H36.3v17.2h17.2v17.2h17.2v-17.2h17.2v-17.2H70.6z"/>
	<path id="path3281" d="M105,682.5h3.5c1.3,0,2.6,0.3,2.6,2c0,1.5-1,2.1-2.3,2.1H105C105,686.5,105,682.5,105,682.5z M101.2,696.7
		h8.3c3.1,0,6.1-1.5,6.1-5c0-2.1-1.1-3.8-3.2-4.4c1.5-0.7,2.3-1.9,2.3-3.6c0-3.2-2.2-4.3-5.5-4.3h-8.1L101.2,696.7L101.2,696.7z
		 M105,689.1h4.1c1.6,0,2.7,0.7,2.7,2.5c0,1.8-1.3,2.3-2.8,2.3h-4V689.1z"/>
	<path id="path3285" d="M117.2,684.3h3.3v2.3h0c0.6-1.6,2.3-2.6,4-2.6c0.2,0,0.5,0,0.8,0.1v3.2c-0.3-0.1-0.8-0.1-1.2-0.1
		c-2.5,0-3.4,1.8-3.4,4v5.6h-3.4V684.3z"/>
	<path id="path3287" d="M130.2,682.4h-3.4v-2.8h3.4V682.4z M126.8,684.3h3.4v12.5h-3.4V684.3z"/>
	<path id="path3291" d="M137.5,684.3h2.5v2.3h-2.5v6.2c0,1.2,0.3,1.4,1.4,1.4c0.4,0,0.7,0,1.1-0.1v2.7c-0.6,0.1-1.3,0.1-2,0.1
		c-2.1,0-3.9-0.5-3.9-3v-7.3H132v-2.3h2.1v-3.7h3.4V684.3L137.5,684.3z"/>
	<path id="path3293" d="M145.9,682.4h-3.4v-2.8h3.4V682.4z M142.4,684.3h3.4v12.5h-3.4V684.3z"/>
	<path id="path3297" d="M150.6,692.7c0,1.5,1.3,2.1,2.6,2.1c1,0,2.2-0.4,2.2-1.6c0-1-1.4-1.4-3.9-1.9c-2-0.4-4-1.1-4-3.3
		c0-3.2,2.8-4,5.4-4c2.7,0,5.2,0.9,5.5,4h-3.2c-0.1-1.3-1.1-1.7-2.3-1.7c-0.8,0-1.9,0.1-1.9,1.2c0,1.2,1.9,1.4,3.9,1.9
		c2,0.5,4,1.2,4,3.5c0,3.3-2.9,4.3-5.7,4.3c-2.9,0-5.7-1.1-5.9-4.4H150.6L150.6,692.7z"/>
	<path id="path3301" d="M160.3,679.5h3.4v6.5h0.1c0.9-1.4,2.4-2.1,3.6-2.1c3.6,0,4.5,2,4.5,5.1v7.7h-3.4v-7c0-2-0.6-3.1-2.2-3.1
		c-1.9,0-2.7,1-2.7,3.6v6.5h-3.4L160.3,679.5L160.3,679.5z"/>
	<path id="path3305" d="M175.7,696.7h3.8V690h3.8c1.9,0,2.6,0.8,2.9,2.6c0.2,1.4,0.1,3,0.6,4.1h3.8c-0.7-1-0.7-3-0.7-4.1
		c-0.1-1.7-0.6-3.5-2.5-4v0c1.9-0.8,2.7-2.3,2.7-4.3c0-2.6-1.9-4.7-5-4.7h-9.3L175.7,696.7L175.7,696.7z M179.5,682.5h4.1
		c1.7,0,2.6,0.7,2.6,2.4c0,1.7-0.9,2.5-2.6,2.5h-4.1V682.5L179.5,682.5z"/>
	<path id="path3309" d="M203.5,691.4c0.2-3.8-1.8-7.4-6-7.4c-3.8,0-6.4,2.8-6.4,6.6c0,3.9,2.4,6.5,6.4,6.5c2.8,0,4.9-1.3,5.8-4.2h-3
		c-0.2,0.8-1.3,1.6-2.7,1.6c-1.9,0-3-1-3.1-3.1H203.5L203.5,691.4z M194.5,689.2c0.1-1,0.7-2.6,2.8-2.6c1.7,0,2.4,0.9,2.7,2.6H194.5
		z"/>
	<path id="path3313" d="M214.1,696.7h3.2v-17.2H214v6.3h0h0c-0.8-1.2-2.2-1.9-3.7-1.9c-3.7,0-5.5,3.1-5.5,6.4c0,3.4,1.8,6.7,5.6,6.7
		c1.6,0,3-0.6,3.8-1.9h0.1L214.1,696.7L214.1,696.7z M214.1,690.5c0,2-0.7,4-2.9,4c-2.1,0-3-2-3-4c0-2.1,0.8-4,3-4
		C213.4,686.5,214.1,688.5,214.1,690.5"/>
	<path id="path3317" d="M232.2,685.3c-0.2-1.7-1.9-3-3.8-3c-3.4,0-4.7,2.9-4.7,5.9c0,2.9,1.3,5.7,4.7,5.7c2.3,0,3.6-1.6,3.9-3.8h3.7
		c-0.4,4.3-3.4,7-7.6,7c-5.3,0-8.5-4-8.5-8.9c0-5.1,3.1-9.1,8.5-9.1c3.8,0,7,2.2,7.4,6.2H232.2L232.2,685.3z"/>
	<path id="path3321" d="M237.6,684.3h3.3v2.3h0c0.6-1.6,2.3-2.6,4-2.6c0.2,0,0.5,0,0.8,0.1v3.2c-0.3-0.1-0.8-0.1-1.2-0.1
		c-2.5,0-3.4,1.8-3.4,4v5.6h-3.4L237.6,684.3L237.6,684.3z"/>
	<path id="path3325" d="M246,690.5c0,3.9,2.5,6.5,6.4,6.5c3.9,0,6.5-2.6,6.5-6.5c0-4-2.5-6.6-6.5-6.6C248.6,684,246,686.6,246,690.5
		 M249.5,690.5c0-2,0.7-4,3-4c2.3,0,3,2,3,4c0,2-0.7,4-3,4C250.2,694.5,249.5,692.5,249.5,690.5"/>
	<path id="path3329" d="M263.3,692.7c0,1.5,1.3,2.1,2.6,2.1c1,0,2.2-0.4,2.2-1.6c0-1-1.4-1.4-3.9-1.9c-2-0.4-4-1.1-4-3.3
		c0-3.2,2.7-4,5.4-4c2.7,0,5.2,0.9,5.5,4H268c-0.1-1.3-1.1-1.7-2.3-1.7c-0.8,0-1.9,0.1-1.9,1.2c0,1.2,1.9,1.4,3.9,1.9
		c2,0.5,4,1.2,4,3.5c0,3.3-2.8,4.3-5.7,4.3c-2.9,0-5.7-1.1-5.9-4.4H263.3z"/>
	<path id="path3333" d="M276,692.7c0,1.5,1.3,2.1,2.6,2.1c1,0,2.2-0.4,2.2-1.6c0-1-1.4-1.4-3.9-1.9c-2-0.4-4-1.1-4-3.3
		c0-3.2,2.7-4,5.4-4c2.7,0,5.2,0.9,5.5,4h-3.3c-0.1-1.3-1.1-1.7-2.3-1.7c-0.8,0-1.9,0.1-1.9,1.2c0,1.2,1.9,1.4,3.9,1.9
		c2,0.5,4,1.2,4,3.5c0,3.3-2.8,4.3-5.7,4.3c-2.9,0-5.7-1.1-5.8-4.4H276z"/>
</g>
</svg>
