<?xml version="1.0" encoding="utf-8"?>
<!-- Generator: Adobe Illustrator 19.2.1, SVG Export Plug-In . SVG Version: 6.00 Build 0)  -->
<svg version="1.1" id="crowned_portcullis" xmlns="http://www.w3.org/2000/svg" xmlns:xlink="http://www.w3.org/1999/xlink" x="0px"
	 y="0px" viewBox="0 0 460 550" style="enable-background:new 0 0 460 550;" xml:space="preserve">
<style type="text/css">
	.st0{fill:#008A3F;}
	.st1{fill:none;stroke:#008A3F;stroke-width:5.7;stroke-miterlimit:10;}
	.st2{fill:none;stroke:#008A3F;stroke-width:5.7;}
</style>
<g id="Crown">
	<circle class="st0" cx="105" cy="112" r="8.6"/>
	<circle class="st0" cx="182" cy="95" r="8.6"/>
	<path class="st0" d="M412.7,39.5c10.9,16.8,18.1,35.1,3,55c-13.6-4.3-18.2-20.1-21-38l-26,47c16.3-7.4,31.1-15.3,42-1.5
		c-16.6,22.9-62.6,49.7-76.4,11.3c1.4-2.1,2.6-4.6,3.2-7.4c1.4-5.8,0.4-11.5-2.2-15.8c11.8-30.7,27.8-20.4,36.9-5.7
		c0.5-16.3,2.5-38.9-32.1-17.4c7.5-18,4.8-48.2,1.7-48.9c-3.1-0.7-19.1,25.1-20.3,44.6C299.9,28,291.7,49,284.9,63.9
		c14.7-9.1,33.6-11.2,30.5,21.6c-4.3,2.6-7.7,7.3-9.1,13.1c-0.6,2.7-0.8,5.4-0.4,8C266.7,120,256.7,110,236.7,70V52.5
		c2-0.5,2-1.5,2.5-3.5c19.1-0.1,25.9,11.6,33.5,23.5v-53c-7.4,13.6-16,23.3-33.5,22.5c-0.5-2-0.5-3-2.5-3.5
		c2.7-18.2,10.2-26.2,28-35l-33.7,0l0,0h-0.1h-0.2l0,0l-33.7,0c17.8,8.7,25.3,16.7,28,35c-2,0.5-2,1.5-2.5,3.5
		c-17.5,0.8-26.1-8.9-33.5-22.5v53c7.6-12,14.4-23.6,33.5-23.5c0.5,2,0.5,3,2.5,3.5V70c-20,40-30,50-69.2,36.6
		c0.3-2.6,0.2-5.3-0.4-8c-1.4-5.8-4.8-10.5-9.1-13.1c-3.1-32.7,15.9-30.6,30.5-21.6c-6.8-14.9-15-35.9-36.5-1.3
		C139,43.2,123.1,17.3,120,18.1c-3.1,0.7-5.9,31,1.7,48.9C87,45.5,89,68.1,89.5,84.4c9.1-14.7,25.1-25,36.9,5.7
		c-2.6,4.2-3.6,10-2.2,15.8c0.6,2.8,1.8,5.3,3.2,7.4C113.6,151.7,67.6,124.9,51,102c10.9-13.7,25.7-5.9,42,1.5l-26-47
		c-2.8,17.9-7.4,33.7-21,38c-15.1-19.9-7.9-38.2,3-55l-35,20l67,115c43.6-28.5,96.9-41.9,149.7-41v0c0.1,0,0.1,0,0.1,0
		c0.1,0,0.1,0,0.1,0v0c52.8-0.9,106.1,12.6,149.7,41l67-115L412.7,39.5z"/>
	<circle class="st0" cx="356.7" cy="112" r="8.6"/>
	<circle class="st0" cx="279.7" cy="95" r="8.6"/>
</g>
<path id="Portcullis" class="st0" d="M231,166.5h-0.3H73v351h17c0,0,25-66,25-71c0-1.4-2-2-8-2v-35h35v37h-8l26,67l26-67h-8v-37h35
	v37h-8l25.7,66.2v0.8l0.1-0.4l0.1,0.4v-0.8l25.7-66.2h-8v-37h35v37h-8l26,67l26-67h-8v-37h35v35c-6,0-8,0.6-8,2c0,5,25,71,25,71h17
	v-351L231,166.5L231,166.5z M90,400.5c-5,0-9-4-9-9c0-5,4-9,9-9s9,4,9,9C99,396.5,95,400.5,90,400.5z M90,329.5c-5,0-9-4-9-9
	c0-5,4-9,9-9s9,4,9,9C99,325.5,95,329.5,90,329.5z M90,260.5c-5,0-9-4-9-9s4-9,9-9s9,4,9,9S95,260.5,90,260.5z M90,193.5
	c-5,0-9-4-9-9s4-9,9-9s9,4,9,9S95,193.5,90,193.5z M142,373.5h-35v-35h35V373.5z M142,302.5h-35v-32h35V302.5z M142,234.5h-35v-32
	h35V234.5z M160,400.5c-5,0-9-4-9-9c0-5,4-9,9-9s9,4,9,9C169,396.5,165,400.5,160,400.5z M160,329.5c-5,0-9-4-9-9c0-5,4-9,9-9
	s9,4,9,9C169,325.5,165,329.5,160,329.5z M160,260.5c-5,0-9-4-9-9s4-9,9-9s9,4,9,9S165,260.5,160,260.5z M160,193.5c-5,0-9-4-9-9
	s4-9,9-9s9,4,9,9S165,193.5,160,193.5z M213,373.5h-35v-35h35V373.5z M213,302.5h-35v-32h35V302.5z M213,234.5h-35v-32h35V234.5z
	 M230.9,400.5c-4.9-0.1-8.9-4.1-8.9-9c0-4.9,4-8.9,8.9-9c4.9,0.1,8.9,4.1,8.9,9C239.7,396.4,235.7,400.4,230.9,400.5z M230.9,329.5
	c-4.9-0.1-8.9-4.1-8.9-9c0-4.9,4-8.9,8.9-9c4.9,0.1,8.9,4.1,8.9,9C239.7,325.4,235.7,329.4,230.9,329.5z M230.9,260.5
	c-4.9-0.1-8.9-4.1-8.9-9c0-4.9,4-8.9,8.9-9c4.9,0.1,8.9,4.1,8.9,9C239.7,256.4,235.7,260.4,230.9,260.5z M230.9,193.5
	c-4.9-0.1-8.9-4.1-8.9-9c0-4.9,4-8.9,8.9-9c4.9,0.1,8.9,4.1,8.9,9C239.7,189.4,235.7,193.4,230.9,193.5z M283.7,373.5h-35v-35h35
	V373.5z M283.7,302.5h-35v-32h35V302.5z M283.7,234.5h-35v-32h35V234.5z M301.7,400.5c-5,0-9-4-9-9c0-5,4-9,9-9s9,4,9,9
	C310.7,396.5,306.7,400.5,301.7,400.5z M301.7,329.5c-5,0-9-4-9-9c0-5,4-9,9-9s9,4,9,9C310.7,325.5,306.7,329.5,301.7,329.5z
	 M301.7,260.5c-5,0-9-4-9-9s4-9,9-9s9,4,9,9S306.7,260.5,301.7,260.5z M301.7,193.5c-5,0-9-4-9-9s4-9,9-9s9,4,9,9
	S306.7,193.5,301.7,193.5z M354.7,373.5h-35v-35h35V373.5z M354.7,302.5h-35v-32h35V302.5z M354.7,234.5h-35v-32h35V234.5z
	 M371.7,400.5c-5,0-9-4-9-9c0-5,4-9,9-9s9,4,9,9C380.7,396.5,376.7,400.5,371.7,400.5z M371.7,329.5c-5,0-9-4-9-9c0-5,4-9,9-9
	s9,4,9,9C380.7,325.5,376.7,329.5,371.7,329.5z M371.7,260.5c-5,0-9-4-9-9s4-9,9-9s9,4,9,9S376.7,260.5,371.7,260.5z M371.7,193.5
	c-5,0-9-4-9-9s4-9,9-9s9,4,9,9S376.7,193.5,371.7,193.5z"/>
<g>
	<path class="st1" d="M432.2,207.5c-0.1,0-0.1,0-0.1,0c-13.5,0-24.5-11-24.5-24.5"/>
	<path class="st1" d="M432.2,207.5c13.5-0.1,24.4-11,24.4-24.5c0-13.5-11-24.5-24.5-24.5c-13.5,0-24.5,11-24.5,24.5"/>
	<line class="st2" x1="421.7" y1="183" x2="407.5" y2="183"/>
	<line class="st2" x1="407.5" y1="183" x2="388.2" y2="183"/>
	<path class="st1" d="M432.2,233.5H418c-3.4,0-6.2,2.8-6.2,6.2v40.6c0,3.4,2.8,6.2,6.2,6.2h14.2"/>
	<path class="st1" d="M432.2,286.5h14.4c3.4,0,6.2-2.8,6.2-6.2v-40.6c0-3.4-2.8-6.2-6.2-6.2h-14.4"/>
	<line class="st2" x1="432.2" y1="233.5" x2="432.2" y2="241"/>
	<line class="st2" x1="432.2" y1="233.5" x2="432.2" y2="207.5"/>
	<line class="st2" x1="432.2" y1="207.5" x2="432.2" y2="200"/>
	<path class="st1" d="M432.2,367.9H418c-3.4,0-6.2-2.8-6.2-6.2v-40.6c0-3.4,2.8-6.2,6.2-6.2h14.2"/>
	<path class="st1" d="M432.2,367.9h14.4c3.4,0,6.2-2.8,6.2-6.2v-40.6c0-3.4-2.8-6.2-6.2-6.2h-14.4"/>
	<line class="st2" x1="432.2" y1="286.5" x2="432.2" y2="281.4"/>
	<line class="st2" x1="432.2" y1="286.5" x2="432.2" y2="314.9"/>
	<line class="st2" x1="432.2" y1="322.4" x2="432.2" y2="314.9"/>
	<path class="st1" d="M432.2,395.8H418c-3.4,0-6.2,2.8-6.2,6.2v40.6c0,3.4,2.8,6.2,6.2,6.2h14.2"/>
	<path class="st1" d="M432.2,395.8h14.4c3.4,0,6.2,2.8,6.2,6.2v40.6c0,3.4-2.8,6.2-6.2,6.2h-14.4"/>
	<line class="st2" x1="432.2" y1="395.8" x2="432.2" y2="403.3"/>
	<line class="st2" x1="432.2" y1="395.8" x2="432.2" y2="367.9"/>
	<line class="st2" x1="432.2" y1="367.9" x2="432.2" y2="362.3"/>
	<path class="st1" d="M432.2,473.5c-0.1,0-0.1,0-0.1,0c-13.5,0-24.5,11-24.5,24.5s11,24.5,24.5,24.5c13.5,0,24.5-11,24.5-24.5
		C456.5,484.5,445.7,473.6,432.2,473.5"/>
	<line class="st2" x1="432.2" y1="442" x2="432.2" y2="448.8"/>
	<line class="st2" x1="432.2" y1="473.5" x2="432.2" y2="483"/>
	<line class="st2" x1="432.2" y1="473.5" x2="432.2" y2="448.8"/>
	<g>
		<path class="st2" d="M29.6,158.5c-13.5,0-24.5,11-24.5,24.5c0,13.5,10.9,24.4,24.4,24.5c0,0,0.1,0,0.1,0c13.5,0,24.5-11,24.5-24.5
			S43.2,158.5,29.6,158.5z"/>
		<line class="st2" x1="54.2" y1="183" x2="40" y2="183"/>
		<line class="st2" x1="73.5" y1="183" x2="54.2" y2="183"/>
		<path class="st2" d="M43.7,233.5H29.5H15.1c-3.4,0-6.2,2.8-6.2,6.2v40.6c0,3.4,2.8,6.2,6.2,6.2h14.4h14.2c3.4,0,6.2-2.8,6.2-6.2
			v-40.6C49.9,236.3,47.1,233.5,43.7,233.5z"/>
		<line class="st2" x1="29.5" y1="207.5" x2="29.5" y2="200"/>
		<line class="st2" x1="29.5" y1="207.5" x2="29.5" y2="233.5"/>
		<line class="st2" x1="29.5" y1="241" x2="29.5" y2="233.5"/>
		<path class="st2" d="M43.7,314.9H29.5H15.1c-3.4,0-6.2,2.8-6.2,6.2v40.6c0,3.4,2.8,6.2,6.2,6.2h14.4h14.2c3.4,0,6.2-2.8,6.2-6.2
			v-40.6C49.9,317.7,47.1,314.9,43.7,314.9z"/>
		<line class="st2" x1="29.5" y1="286.5" x2="29.5" y2="314.9"/>
		<line class="st2" x1="29.5" y1="314.9" x2="29.5" y2="322.4"/>
		<line class="st2" x1="29.5" y1="286.5" x2="29.5" y2="281.4"/>
		<path class="st2" d="M29.5,448.8h14.2c3.4,0,6.2-2.8,6.2-6.2V402c0-3.4-2.8-6.2-6.2-6.2H29.5"/>
		<path class="st2" d="M29.5,395.8H15.1c-3.4,0-6.2,2.8-6.2,6.2v40.6c0,3.4,2.8,6.2,6.2,6.2h14.4"/>
		<line class="st2" x1="29.5" y1="362.3" x2="29.5" y2="367.9"/>
		<line class="st2" x1="29.5" y1="395.8" x2="29.5" y2="367.9"/>
		<line class="st2" x1="29.5" y1="395.8" x2="29.5" y2="403.3"/>
		<path class="st2" d="M29.5,473.5C16,473.6,5.2,484.5,5.2,498c0,13.5,11,24.5,24.5,24.5s24.5-11,24.5-24.5s-11-24.5-24.5-24.5
			C29.6,473.5,29.5,473.5,29.5,473.5"/>
		<line class="st2" x1="29.5" y1="448.8" x2="29.5" y2="473.5"/>
		<line class="st2" x1="29.5" y1="448.8" x2="29.5" y2="442"/>
		<line class="st2" x1="29.5" y1="473.5" x2="29.5" y2="483"/>
	</g>
</g>
</svg>
