<?xml version="1.0" encoding="utf-8"?>
<!-- Generator: Adobe Illustrator 19.2.1, SVG Export Plug-In . SVG Version: 6.00 Build 0)  -->
<svg version="1.1" id="Layer_1" xmlns="http://www.w3.org/2000/svg" xmlns:xlink="http://www.w3.org/1999/xlink" x="0px" y="0px"
	 viewBox="0 0 212 250" style="enable-background:new 0 0 212 250;" xml:space="preserve">
<style type="text/css">
	.st0{fill:#EF3E42;}
	.st1{fill:none;stroke:#FFFFFF;stroke-width:2.4198;stroke-linecap:round;}
	.st2{fill:#FFFFFF;}
</style>
<g>
	<path class="st0" d="M105.9,237.1c6.3-6.2,20.4-17,33.9-21.1c15.5-4.6,55.7-11.8,64.9-52.8c7.5-32.2-6.5-68.4-8.1-84.7
		c-1.4-14.2,2.8-46.8,3.6-51.6c0.8-6.7-5.4-9.1-9.5-7.7c-6.9,2.6-21.6,7.4-38.5,7.7c-18.1,0.2-40.5-13-46.4-21.8
		c-5.6,8.9-28,22.1-46.2,21.8c-16.9-0.2-31.7-5-38.5-7.7c-4.2-1.4-10.5,1-9.5,7.7c0.6,4.8,5,37.4,3.6,51.6
		C13.8,94.8-0.2,131,7.3,163.2c9.3,41,49.4,48.2,64.7,52.8C85.5,220,99.6,230.8,105.9,237.1"/>
	<path class="st1" d="M105.9,228.7c7.9-8.2,24.6-16.8,35.7-19.7c30.6-8.2,49-21.8,55.7-42.7c9.7-29.8-3.6-63.4-6.5-85.4
		c-1.8-15.1,1.8-44.6,2.6-48.2c1.2-7.2,0.4-8.2-5.6-6c-6,2.2-23.2,6.5-38.7,6c-14.9-0.5-32.5-9.6-43.2-18.2
		C95.2,23,77.9,32.1,63,32.6c-15.5,0.5-32.9-3.8-38.9-6c-5.8-2.2-6.9-1.2-5.4,6c0.6,3.6,4.4,33.1,2.4,48.2
		c-2.6,22.1-16.1,55.7-6.5,85.4c6.9,20.9,25,34.6,55.9,42.7C81.5,211.9,98,220.5,105.9,228.7z"/>
	<path class="st2" d="M111.3,35.7c0.2,2.2,0.6,4.3,0.4,7c-0.6-1.7-2.2-3.6-4.2-3.6c-2.4,0-4.4,1.7-5.4,3.6c-0.4,3.4-0.4,6.5,0.2,9.8
		c1.4-0.5,2.6-1.9,4-2.6c3.4-2.2,9.1-0.5,10.5-5.3l0.2-0.2c0.6,1.2-0.2,2.9-0.6,4.3c-3.4,5.8-11.7,1-14.3,7.2
		c0.2,4.1-0.6,8.6,0.6,12.5c0.6,0.7,1.6,0.5,2.4,0.2c5.4-1.7,8.5-7,9.9-11.8h0.2c-0.2,2.9-0.2,6.2-0.8,9.1
		c-6.1,3.8-12.1,7.4-18.1,10.6c2.8-5.5,0.8-13,1.4-19.4c-0.4-3.8-0.4-7.2-0.4-11c0-0.7-0.8-1.4-1.4-1.9c-0.6-0.2-1.4-0.2-2-0.5
		c0.4-0.7,1.4-1.4,2.4-1.9c4.6-2.9,9.5-5,14.1-7.7C111.3,33.8,110.9,35.2,111.3,35.7"/>
	<path class="st2" d="M179.3,46.3c1.4,4.3,0,9.1-0.4,13.4c-1.2,10.1-1.6,20.9,1.4,30c0.2,0.7-0.8,0.7-1.2,0.5
		c-2.2-1.2-3.2-3.8-4.2-6.2c-2.4-4.3-3.8-9.4-6.7-13.7l-0.2,0.5l0.2,20.2c0.2,0.7,1,1.2,1.6,1.4C168.2,94,166,95,164,96
		c0-1,0.6-1.9,0.6-3.1c0-10.6,0-21.4-0.4-31.7c-0.4-1.4-2.2-1.7-3.4-2.2c1.6-1.4,3.6-2.6,5.6-3.6c0.8-0.2,1.4,0.5,1.6,1.2
		c2.2,4.3,3.8,9.1,6.2,13.4c0.2,0,0.2-0.2,0.4-0.2c0-7,1.2-13.7,0.6-20.6c-0.2-1.4-2.8-1.9-2-3.6c1-0.7,2-1.7,3.4-1.2
		C177.9,44.4,178.5,45.6,179.3,46.3"/>
	<path class="st2" d="M89.2,46.3c-0.4,1-0.8,2.2-1,3.1l0.2,27.4c0.2,0.7,0,1.4,0.8,2.2l1.2,0.7c-1.8,1.7-4.6,2.9-6.9,4.1
		c0-0.2-0.2-0.7,0.2-0.7l0.4-2.2l-0.2-14.2c-1-1.2-2,0.2-3,0.5c-1.6,1.4-3.8,2.2-5.2,3.6c0,4.6-0.4,9.6,0.4,13.9
		c0.2,1,1,1.4,1.8,1.7h0.8c-2.6,2.2-5.6,3.8-8.7,5c0.6-1.2,1-2.9,1.2-4.3l-0.6-26.6c0-1.2-1.4-1.7-2-2.4c2.2-1.9,5-3.4,7.7-4.3
		c-1.8,3.4-0.4,8.4-0.6,12.5c0,0.5,0.2,0.5,0.4,0.7c2.6-0.7,4.8-2.9,7.5-4.1l0.4-1l-0.2-9.4c-0.2-0.7-0.8-1.4-1.6-1.7h-0.6
		c0-1,1-0.7,1.4-1.4C84.9,48.7,86.7,46.8,89.2,46.3"/>
	<path class="st2" d="M64.2,56.8c0.8,4.3,0.2,8.9,2.2,12.5c-3.2-1.7-2.6-5.5-5.6-7.4c-0.8-0.5-1.4,0.5-1.8,1
		c-0.4,11,0.4,21.1,0.6,31.7c0.4,0.7,1,1.2,1.6,1.4h1.2c-3,2.2-6.7,3.6-9.9,5.5c3.2-3.4,1.6-8.6,1.8-12.7l-0.4-22.1
		c-0.2-0.5,0-1.2-0.6-1.7c-2.6,0.7-2.8,4.1-3.8,6.2c-0.6,3.1-0.8,6.7-3.4,8.9h-0.4C48,75.8,46,69.8,47.4,65
		c5.4-2.9,10.7-6.5,16.3-9.1L64.2,56.8"/>
	<path class="st2" d="M152.3,67.4c-2.6,0.7-3.4,3.6-3.8,5.8c-1.2,7.7-2,17,0.4,24.5c0.6,1.2,1.4,3.6,3.4,3.4
		c2.4-0.7,2.6-3.4,3.4-5.5c1.6-7.9,1.8-17.3,0.2-25.4C155.1,68.8,154.1,67.2,152.3,67.4 M159.1,67.6c4,9.6,3.4,21.6-0.8,31
		c-1.4,2.4-3.2,5-6,5.5c-2.2,0.5-4.4-0.5-6-1.9c-4.2-6.7-5-16.1-3.6-24.2c1.2-5.5,3.2-13,10.3-14.2
		C155.7,63.6,157.7,65.5,159.1,67.6z"/>
	<path class="st2" d="M140.6,70.5c-0.2,1.4-1.2,2.9-1.2,4.3v16.1c0,5.8,0,11.5,0.4,16.8c0.4,0.7,1,1.2,1.6,1.4l-0.2,0.5
		c-2.4,1.7-4.8,3.1-7.5,4.3c1.2-2.2,1.6-5,1.4-8.2l-0.4-21.6l-0.4-7.4c-0.2-0.7-1-1.2-1.6-1.7c2-1.7,4.4-2.4,6.7-4.1
		C139.8,71,140.2,70.5,140.6,70.5"/>
	<path class="st2" d="M130.3,77.5c0.8,4.1,0.4,8.4,0.8,12.2c-2-2.2-1-5.8-4-7.2c-1-0.5-1.6,0.5-2.2,1.2l-0.2,1v20.2l0.2,10.8
		c0.4,1,1.2,1.7,2.2,2.2c-2.2,1.9-4.6,3.4-7.3,4.1l0.6-3.4V101L120,86.6c-0.4-0.7-1.2-0.7-1.8-0.2c-2.6,2.6-2,6.7-3.8,9.6h-0.2
		c0.4-3.1,0-6.7,0-9.6l0.4-1c4.8-2.6,9.9-5.8,14.7-8.4C129.7,77,130.3,77.2,130.3,77.5"/>
	<path class="st2" d="M100.1,94.5c-1.2,2.2-1.2,4.8-1.8,7.2l-1.2,6.5l-3.4,18.7c-1.6,4.6-0.8,10.8-4.2,14.4c0-3.1-1-5.8-1.6-8.9
		l-5-19.2c-0.6-2.4-1.2-5.5-4.2-6.2v-0.2c2.8-1.7,5.4-3.8,8.5-4.8c-1.2,1.4-0.8,3.8-0.6,5.5c0.8,5.5,2.4,10.6,3.6,15.8
		c0.2,0,0.4,0.2,0.6,0.2c1.4-4.6,1.6-9.6,2.6-14.2c0.4-3.1,1.8-6.7,0.2-9.6c-0.2-0.5-0.8-1-1.2-1c2-1.7,4.6-3.1,7.3-4.3L100.1,94.5"
		/>
	<path class="st2" d="M175.7,108.9c0.8,1.4,0.8,3.8,0,5.5c-2.4,7.7-5.9,14.9-8.5,22.6c-0.2,3.8-0.2,8.4,0.2,12.2
		c0,0.7,1,1.2,1.4,1.9c-2.4,1.9-5.4,3.1-8.1,5c0.4-1.7,1.4-3.1,1.6-5c0-4.6,0-9.4-0.6-13.7c-2.2-4.8-4.6-9.6-7.3-14.4l-1.6-1.2
		c2.6-1.7,5-3.6,7.9-4.6c-0.4,1.7-1.4,4.3-0.2,6.2c1.6,2.9,2.4,5.8,4,8.4c0.8,0.2,0.8-1,1.4-1.2c1.8-6,5-11.3,5.6-17.5
		c0-2.2-1-4.3-3-5c-0.2-0.5,0.2-1,0.2-1.2c1.6-1,3.6-0.7,5.2,0C174.9,107.2,175.1,108.2,175.7,108.9"/>
	<path class="st2" d="M73.4,117.8c0,8.6,0,17.3,0.4,25.9c0.4,0.7,0.2,1.4,1.2,1.7c1,0.5,1.6-0.2,2.4-0.7c3.2-3.4,1.4-8.9,5.2-12h0.8
		c-1.2,2.9-1.4,6-1.2,9.1c-0.2,1,0,2.2-0.2,3.1c-4,2.6-8.5,5-12.7,7.4l-0.2-0.2l0.2-4.3L69.2,126l-0.2-9.4c-0.6-1.4-2-2.2-3.4-2.2
		c3.2-1.9,6-4.3,9.3-5.5C73.2,111.3,73.6,114.9,73.4,117.8"/>
	<path class="st2" d="M148.6,124.3c0,1.4-0.8,2.9-0.8,4.6v12.7l0.4,18.7c0.2,1,1,1.4,1.8,1.9c-2.2,1.7-4.2,2.9-6.7,3.8
		c0.6-2.2,0.2-4.1,0.2-6.2l-0.2-17.3c-0.2-0.2-0.4,0-0.6,0.2c-1.6,4.6-2.8,9.1-4.6,13.7c-0.8-0.2-1.4-1.2-1.8-2.2
		c-1.4-2.2-2.2-4.6-3.8-6.7c-0.4,0-0.8,0.2-0.8,0.5c0.4,7.7-0.2,14.4,0.4,22.1c0.6,0.5,1.4,1,1.8,1.7c-2,1.7-4.6,2.9-7.1,4.1
		c0.4-1.7,1.4-3.4,1.4-5.5l-0.2-15.8l-0.4-13.4c-0.4-1.4-1.8-2.2-3-2.6c1.8-1.2,3.6-2.9,5.8-3.1c2.2,3.6,4.2,7.4,6.5,11
		c0.8,0.5,0.8-0.7,1.2-1c1.4-6,3.2-11.8,5-17.8C144.8,126,146.6,125.2,148.6,124.3"/>
	<path class="st2" d="M43.6,128.6c-2.6,3.4-2.2,9.1-1,13c-1.6,0-2.4-1.4-3.4-2.4c-0.6,0-1.6,0.2-2-0.2c0.6-1,1-2.2,1-3.1
		c0-1.7-0.6-3.1-2.2-3.8c-2-1.2-4.8-1-6.9,0.5c-1.6,1.7-2.8,3.6-1.8,5.8c2.8,6.7,11.5,8.9,14.9,15.6c2,5,1.4,11.5-1.8,15.8
		c-2.8,3.4-7.1,5.3-11.9,4.6c-3-0.7-5.8-3.1-6.7-6c-1-3.1,0.2-5.8,2.4-7.4c1.6-1.2,4-1.2,5.4,0c0.8,0.5,1.2,1.2,1.2,2.2
		c-0.4,0.7-1.2-0.2-1.8,0.2c-0.8,0.5-1.8,1.2-2,1.9c0,1.4-0.2,2.2,0.4,3.1c1.4,1.7,3.2,2.2,5.4,1.9c2.6-0.7,5.4-3.6,5.8-6.7
		c1.2-11.3-13.5-13-15.9-22.6c-1.2-4.6,0.4-8.9,4-11.3c3.6-2.4,8.3-2.2,12.1-0.5c1.2-1,3-1.9,4.6-1.4L43.6,128.6"/>
	<path class="st2" d="M56.5,131l-0.8,0.2c-0.6,4.3-1.8,9.8-1.8,13.9c1.6-0.7,3.4-1.2,4.4-2.6L56.5,131 M58.3,116.4c-1,1-1,2.6-1,3.8
		c3,10.1,5.4,20.4,8.5,30.5c0.2,1.2,1.6,1.9,1.4,3.1c-2.4,1.4-4.8,3.1-7.7,4.1c2-3.1,0.8-6.5-0.2-9.6c-0.6-1.9-1-1.4-2-1
		c-1.2,0.5-2.8,1.4-3.4,1.7c-1.2,0.5-1.2,2.2-1.4,3.1c-0.4,1.9-2.4,7.2,0.6,8.6c0.6,0,0.8,0.2,1.2,0c-2.6,2.6-6.5,4.3-9.5,6
		c0.4-1.4,1.2-2.6,1.6-3.8c2.8-13.4,4.8-27.4,7.5-40.8C54.9,120,55.7,117.1,58.3,116.4z"/>
	<path class="st2" d="M113.8,148.5c-1,0-2.2,0.7-2.4,1.7c-0.4,4.6-0.2,9.8,0,14.6c0.2,0.7,1,0.7,1.6,0.7c1.8,0,3.4-1.2,4.2-2.6
		c1.4-4.1,2.6-9.6,0.2-13.4C116.4,148.8,115.2,148.5,113.8,148.5 M123.2,149.7c2,4.3,0.6,9.8-1.8,13.2c-1,2.2-4.4,2.6-3.8,5.5
		c1.4,5.8,3,11.8,8.3,15.4c1.2,0.7,2.8,0.7,4.2,0.5c0,1.4-1.6,2.2-2.8,2.4c-6.7,0.2-10.1-6.7-12.5-11.5c-1-2.4-1.8-4.8-2.4-7
		l-0.6-0.5l-0.4,0.5c-0.2,4.8,0.2,9.8,0,14.6c0.4,0.7,1.6,0.7,1.6,1.4c-2,1.7-4.2,2.9-6.7,3.8c1-4.3-0.2-8.9,0.2-13.4
		c-0.2-7.2-0.2-15.1-0.4-22.6c-0.4-0.7-1-1.4-1.8-1.4h-1.2c1.2-1.7,3.4-2.6,5.2-3.6c3.2-1.9,8.1-3.1,11.5-1
		C121.2,147.1,122.4,148.5,123.2,149.7z"/>
	<path class="st2" d="M91,165.8l-0.6,1.9c-0.8,5-2,9.8-2.2,14.9c2.2-0.2,4-1.7,6-2.9c0.2-0.7,0.2-1.2,0-1.7
		C93,174,92.6,169.6,91,165.8 M97.6,170.8l4,17.3c0,1,1.2,1.4,1.6,1.9c-2,1.7-4.2,2.6-6.2,3.4c1-3.1-0.6-6.5-1.4-9.4
		c-0.2-1-1.4-0.5-2-0.2c-2.4,1.2-4.8,2.4-6.9,4.1c-0.4,3.4-1.6,6.7-1.2,10.1c0.4,1,1.2,1.2,2,1.2l-0.2,0.5c-2.8,1.9-5.8,3.8-8.9,5
		c0.2-1.2,1.4-1.9,1.8-3.1c2.2-5.8,2.8-12,4-18.2c1.6-8.6,3.6-17.3,5-25.9c1-2.6,1.6-5.3,4-7.2C94,157.4,96.4,163.9,97.6,170.8z"/>
	<path class="st0" d="M122,237.3c1,0,2,0,2-1.4c0-1-1-1.2-1.8-1.2h-1.8v2.6L122,237.3 M120.4,241.9h-1.2v-8.2h3.2
		c1.8,0,2.8,0.7,2.8,2.4c0,1.4-0.8,2.2-2,2.2l2.2,3.6H124l-2.2-3.6h-1.4C120.4,238.3,120.4,241.9,120.4,241.9z M122,243.8
		c3.2,0,5.8-2.6,5.8-6c0-3.4-2.6-6-5.8-6c-3.2,0-5.8,2.6-5.8,6C116.2,241.2,118.8,243.8,122,243.8z M114.8,237.8
		c0-4.1,3.2-7.2,7.3-7.2c3.8,0,7.3,3.1,7.3,7.2s-3.4,7.2-7.3,7.2C118,245,114.8,241.9,114.8,237.8z"/>
	<path class="st2" d="M107.5,102.2l-0.6,0.2c-0.8,4.1-1.8,9.6-1.8,13.7c1.4-0.7,3.2-1.2,4.4-2.6L107.5,102.2 M112.2,105.6
		c1.4,5.3,2.4,11,4,16.3c0.2,0.7,1.4,1.2,1.4,1.7c-2.2,1.7-4.6,3.1-7.1,4.1c0.4-1.7,0.8-3.8,0.6-5.8l-1-3.6c-0.2-0.7-1-0.5-1.6-0.2
		c-1.4,1.4-4,1.7-5,3.6c0,2.9-1.4,5.3-0.8,8.2c0.4,1,1.6,1,2.8,1c-3.2,1.9-6,4.1-9.5,5.5h0.2c3.6-8.6,4-18.5,6.2-27.4
		c1.8-7.4,1.8-15.6,5.6-22.3l0.4-0.2C108.3,93.1,111.1,99.1,112.2,105.6z"/>
</g>
</svg>
